HIERARCHY
ROOT reference
{
  OFFSET 0 0 0
  CHANNELS 6 Xposition Yposition Zposition Zrotation Xrotation Yrotation
  JOINT Hips
  {
    OFFSET -42.1216 81.686 33.4784
    CHANNELS 6 Xposition Yposition Zposition Zrotation Xrotation Yrotation
    JOINT Spine
    {
      OFFSET 0 7.88368 0
      CHANNELS 6 Xposition Yposition Zposition Zrotation Xrotation Yrotation
      JOINT Spine1
      {
        OFFSET 0 24.7763 0
        CHANNELS 6 Xposition Yposition Zposition Zrotation Xrotation Yrotation
        JOINT Neck
        {
          OFFSET 0 24.6746 2.24314
          CHANNELS 6 Xposition Yposition Zposition Zrotation Xrotation Yrotation
          JOINT Head
          {
            OFFSET 0 13.4599 -1.92285
            CHANNELS 6 Xposition Yposition Zposition Zrotation Xrotation Yrotation
            End Site
            {
              OFFSET 0 24.0356 0
            }
          }
        }
        JOINT LeftShoulder
        {
          OFFSET 3.81022 22.3233 -0.325006
          CHANNELS 6 Xposition Yposition Zposition Zrotation Xrotation Yrotation
          JOINT LeftArm
          {
            OFFSET 12.5606 0 0
            CHANNELS 6 Xposition Yposition Zposition Zrotation Xrotation Yrotation
            JOINT LeftForeArm
            {
              OFFSET 28.8068 0 0
              CHANNELS 6 Xposition Yposition Zposition Zrotation Xrotation Yrotation
              JOINT LeftHand
              {
                OFFSET 23.8139 0 0
                CHANNELS 6 Xposition Yposition Zposition Zrotation Xrotation Yrotation
                End Site
                {
                  OFFSET 14.4214 0 0
                }
              }
            }
          }
        }
        JOINT RightShoulder
        {
          OFFSET -3.82306 22.3233 -0.325006
          CHANNELS 6 Xposition Yposition Zposition Zrotation Xrotation Yrotation
          JOINT RightArm
          {
            OFFSET -12.5606 0 0
            CHANNELS 6 Xposition Yposition Zposition Zrotation Xrotation Yrotation
            JOINT RightForeArm
            {
              OFFSET -28.8068 0 0
              CHANNELS 6 Xposition Yposition Zposition Zrotation Xrotation Yrotation
              JOINT RightHand
              {
                OFFSET -23.8139 0 0
                CHANNELS 6 Xposition Yposition Zposition Zrotation Xrotation Yrotation
                End Site
                {
                  OFFSET -14.4214 0 0
                }
              }
            }
          }
        }
      }
    }
    JOINT LeftUpLeg
    {
      OFFSET 9.61425 0 0
      CHANNELS 6 Xposition Yposition Zposition Zrotation Xrotation Yrotation
      JOINT LeftLeg
      {
        OFFSET 0 -41.4642 0
        CHANNELS 6 Xposition Yposition Zposition Zrotation Xrotation Yrotation
        JOINT LeftFoot
        {
          OFFSET 0 -34.276 0
          CHANNELS 6 Xposition Yposition Zposition Zrotation Xrotation Yrotation
          JOINT LeftToeBase
          {
            OFFSET 0 -6.24926 14.4214
            CHANNELS 6 Xposition Yposition Zposition Zrotation Xrotation Yrotation
            End Site
            {
              OFFSET 0 0 3.8457
            }
          }
        }
      }
    }
    JOINT RightUpLeg
    {
      OFFSET -9.61425 0 0
      CHANNELS 6 Xposition Yposition Zposition Zrotation Xrotation Yrotation
      JOINT RightLeg
      {
        OFFSET 0 -41.4642 0
        CHANNELS 6 Xposition Yposition Zposition Zrotation Xrotation Yrotation
        JOINT RightFoot
        {
          OFFSET 0 -34.276 0
          CHANNELS 6 Xposition Yposition Zposition Zrotation Xrotation Yrotation
          JOINT RightToeBase
          {
            OFFSET 0 -6.24926 14.4214
            CHANNELS 6 Xposition Yposition Zposition Zrotation Xrotation Yrotation
            End Site
            {
              OFFSET 0 0 3.8457
            }
          }
        }
      }
    }
  }
}
MOTION
Frames:	9
Frame Time:	0.004
0 0 0 0 0 -0 -62.3942 80.7982 -152.422 -5.65907 0.023197 -45.4684 0 7.88368 7.10543e-015 1.3162 9.35791 6.4689 0 24.7763 -1.42109e-014 1.30401 -9.4915 6.6849 0 24.6746 2.24314 0.897318 13.7148 -4.74549 0 13.4599 -1.92285 -4.36174 20.4903 -4.79338 3.81022 22.3233 -0.325006 15.8629 -12.4269 7.27604 12.5606 0 -1.42109e-014 -27.1572 -19.2432 -24.6672 28.8068 -2.84217e-014 -1.42109e-014 34.4051 -52.3056 -106.679 23.8139 0 0 21.5365 -13.2755 -13.3268 -3.82306 22.3233 -0.325006 -14.2675 -2.22935 17.8168 -12.5606 0 0 22.5647 -1.50911 15.3752 -28.8068 0 0 7.65548 -30.4556 29.5263 -23.8139 0 -1.42109e-014 1.74238 -32.1804 0.059915 9.61425 0 0 -1.68028 -16.5978 12.5617 0 -41.4642 0 -5.64675 13.8224 11.1976 0 -34.276 -1.42109e-014 -0.948622 -8.03112 25.3259 0 -6.24926 14.4214 -6.1499e-015 -3.97569e-016 -0 -9.61425 0 0 0.705657 15.4547 -6.41507 2.84217e-014 -41.4642 -7.10543e-015 -1.09318 19.918 -6.03404 0 -34.276 -7.10543e-015 11.6878 4.02262 -3.11523 0 -6.24926 14.4214 -1.59028e-015 -1.59028e-015 -6.36111e-015 
0 0 0 0 0 -0 -62.8236 80.7328 -151.936 -5.89386 0.114736 -45.3488 0 7.88368 -7.10543e-015 1.44688 9.19394 6.34263 0 24.7763 -2.84217e-014 1.42774 -9.42082 6.57662 0 24.6746 2.24314 0.925246 13.6845 -4.54887 2.84217e-014 13.4599 -1.92285 -4.6079 20.6315 -4.57398 3.81022 22.3233 -0.325006 16.1035 -12.4313 7.32148 12.5606 0 7.10543e-015 -27.2845 -19.1704 -24.3669 28.8068 2.84217e-014 -7.10543e-015 34.5188 -52.5501 -106.793 23.8139 -1.42109e-014 -1.42109e-014 21.781 -13.3757 -13.3067 -3.82306 22.3233 -0.325006 -14.116 -2.33503 18.0506 -12.5606 -1.42109e-014 -2.84217e-014 23.1874 -1.07516 15.263 -28.8068 -2.84217e-014 0 8.01795 -31.1668 28.8391 -23.8139 2.84217e-014 -1.42109e-014 2.22017 -32.9197 -0.179639 9.61425 2.84217e-014 -7.10543e-015 -1.67921 -16.3055 12.7787 0 -41.4642 0 -5.46344 13.7358 10.9943 0 -34.276 -1.42109e-014 -0.832678 -7.94684 25.124 0 -6.24926 14.4214 6.5102e-015 -3.97569e-016 -7.95139e-016 -9.61425 1.42109e-014 0 0.776036 15.163 -6.61684 0 -41.4642 0 -1.24975 21.0385 -5.77296 0 -34.276 -1.42109e-014 11.4285 5.35851 -2.3598 -2.84217e-014 -6.24926 14.4214 1.59028e-015 -3.18055e-015 6.36111e-015 
0 0 0 0 0 -0 -63.2752 80.6468 -151.433 -6.11515 0.23544 -45.146 0 7.88368 0 1.57252 9.00067 6.15339 2.84217e-014 24.7763 1.42109e-014 1.60433 -9.34924 6.40838 0 24.6746 2.24314 0.826159 13.6902 -4.27674 0 13.4599 -1.92285 -4.67856 20.6105 -4.28633 3.81022 22.3233 -0.325006 15.8697 -12.5464 7.60189 12.5606 2.84217e-014 0 -26.8648 -19.0961 -24.4862 28.8068 0 0 34.477 -52.5543 -106.848 23.8139 -1.42109e-014 7.10543e-015 22.0885 -13.4205 -13.2323 -3.82306 22.3233 -0.325006 -14.113 -2.25634 18.1822 -12.5606 -1.42109e-014 0 23.9315 -0.766712 15.3994 -28.8068 -2.84217e-014 0 8.38984 -31.8627 28.1795 -23.8139 0 7.10543e-015 2.06271 -33.6492 -0.846728 9.61425 0 -7.10543e-015 -1.67093 -16.1003 12.8421 0 -41.4642 -1.42109e-014 -5.39653 13.7908 11.1379 -1.42109e-014 -34.276 -1.42109e-014 -0.659106 -7.86198 24.8298 2.84217e-014 -6.24926 14.4214 8.57259e-016 3.97569e-016 -3.97569e-016 -9.61425 1.42109e-014 0 0.862622 14.7526 -6.82957 0 -41.4642 0 -1.27177 22.728 -5.26398 0 -34.276 0 11.2913 5.64015 -2.44849 0 -6.24926 14.4214 -1.59028e-015 -3.97569e-015 -6.36111e-015 
0 0 0 0 0 -0 -63.7329 80.5474 -150.917 -6.37629 0.26488 -44.9941 -2.84217e-014 7.88368 -1.42109e-014 1.64214 8.88125 6.00178 0 24.7763 0 1.78122 -9.24611 6.27338 2.84217e-014 24.6746 2.24314 0.909414 13.6681 -4.08199 0 13.4599 -1.92285 -5.06482 20.6616 -4.0678 3.81022 22.3233 -0.325006 16.1639 -12.4428 7.46683 12.5606 0 0 -26.9326 -19.2955 -23.9108 28.8068 0 2.13163e-014 34.4707 -52.7802 -107.078 23.8139 0 1.42109e-014 22.5507 -13.6026 -13.1906 -3.82306 22.3233 -0.325006 -14.0742 -2.31723 18.3455 -12.5606 0 0 24.6421 -0.230844 15.3552 -28.8068 0 -2.84217e-014 8.61109 -32.5153 27.6517 -23.8139 2.84217e-014 7.10543e-015 1.62341 -34.3067 -1.64985 9.61425 -2.84217e-014 -2.13163e-014 -1.68457 -15.737 12.9605 0 -41.4642 1.42109e-014 -5.27673 13.8531 11.0497 1.42109e-014 -34.276 0 -0.313773 -7.5976 24.322 -1.42109e-014 -6.24926 14.4214 -1.63997e-015 3.97569e-016 -7.95139e-016 -9.61425 0 -7.10543e-015 0.905507 14.4565 -6.99295 0 -41.4642 -1.42109e-014 -1.41635 23.9664 -4.98508 0 -34.276 0 11.4187 6.96699 -2.22877 0 -6.24926 14.4214 3.18055e-015 7.95139e-015 -0 
0 0 0 0 0 -0 -64.1944 80.4248 -150.387 -6.6158 0.256471 -44.8204 0 7.88368 -7.10543e-015 1.67837 8.76191 5.81978 0 24.7763 0 1.94572 -9.11041 6.10344 0 24.6746 2.24314 0.900414 13.545 -3.81739 0 13.4599 -1.92285 -5.27174 20.7614 -3.77982 3.81022 22.3233 -0.325006 16.253 -12.6274 7.68901 12.5606 0 1.42109e-014 -26.833 -19.2463 -23.8516 28.8068 0 -2.13163e-014 34.2617 -52.7512 -107.327 23.8139 0 1.42109e-014 22.8826 -13.7025 -13.19 -3.82306 22.3233 -0.325006 -13.9923 -2.33697 18.5476 -12.5606 0 -2.84217e-014 25.2309 0.163319 15.3695 -28.8068 -2.84217e-014 -2.84217e-014 8.78815 -32.9898 26.8563 -23.8139 0 -1.42109e-014 2.09642 -34.7574 -1.47703 9.61425 -1.42109e-014 0 -1.7419 -15.3715 12.9946 0 -41.4642 1.42109e-014 -5.23329 14.0402 11.0512 -1.42109e-014 -34.276 0 1.65326 -6.70496 23.2412 0 -6.24926 14.4214 -2.09966e-015 -1.98785e-016 -1.98785e-016 -9.61425 -1.42109e-014 -7.10543e-015 0.891892 14.1308 -7.11212 0 -41.4642 7.10543e-015 -1.57381 25.4184 -4.73352 0 -34.276 0 11.2502 7.9546 -1.80652 -2.84217e-014 -6.24926 14.4214 -3.18055e-015 -7.95139e-016 -0 
0 0 0 0 0 -0 -64.6223 80.2909 -149.879 -6.82773 0.201703 -44.6406 0 7.88368 -7.10543e-015 1.68331 8.67355 5.64721 2.84217e-014 24.7763 1.42109e-014 2.09476 -8.97428 5.9393 0 24.6746 2.24314 0.905529 13.5104 -3.58838 0 13.4599 -1.92285 -5.46149 20.6536 -3.53934 3.81022 22.3233 -0.325006 16.2942 -12.7755 7.87996 12.5606 0 0 -26.6328 -19.1307 -23.7777 28.8068 0 2.13163e-014 34.3345 -52.8333 -107.263 23.8139 1.42109e-014 0 23.2347 -13.8127 -13.1818 -3.82306 22.3233 -0.325006 -13.9297 -2.35508 18.7026 -12.5606 0 -2.84217e-014 25.8099 0.793358 15.3329 -28.8068 0 0 8.97952 -33.4691 26.5898 -23.8139 -2.84217e-014 -7.10543e-015 0.816481 -35.2401 -2.72311 9.61425 -2.84217e-014 -2.13163e-014 -1.83494 -15.0887 12.9653 0 -41.4642 0 -5.20468 14.57 11.1889 -1.42109e-014 -34.276 0 4.70911 -5.55215 21.6182 0 -6.24926 14.4214 1.31384e-015 1.98785e-016 9.93923e-017 -9.61425 0 0 0.833855 13.818 -7.21477 -2.84217e-014 -41.4642 -7.10543e-015 -1.8747 26.7462 -4.40729 0 -34.276 -7.10543e-015 11.225 9.10136 -1.05937 0 -6.24926 14.4214 -3.18055e-015 1.11319e-014 9.54166e-015 
0 0 0 0 0 -0 -65.0587 80.1347 -149.347 -7.0392 0.107807 -44.4062 0 7.88368 0 1.6583 8.63554 5.44256 0 24.7763 1.42109e-014 2.24152 -8.8772 5.74181 0 24.6746 2.24314 0.90258 13.4119 -3.33969 0 13.4599 -1.92285 -5.6157 20.6889 -3.27311 3.81022 22.3233 -0.325006 16.3997 -12.8582 8.03292 12.5606 -2.84217e-014 0 -26.6076 -19.308 -23.8002 28.8068 0 1.42109e-014 34.0008 -52.7001 -107.593 23.8139 7.10543e-015 -7.10543e-015 23.5362 -13.8788 -13.1777 -3.82306 22.3233 -0.325006 -13.8315 -2.36986 18.9034 -12.5606 -2.84217e-014 1.42109e-014 26.3734 1.31461 15.2292 -28.8068 2.84217e-014 0 8.9309 -33.7178 26.0608 -23.8139 0 0 1.16683 -35.4448 -2.6503 9.61425 0 0 -1.93927 -14.761 12.7846 0 -41.4642 2.84217e-014 -5.31046 15.3178 11.0269 0 -34.276 -1.42109e-014 7.85984 -4.83359 20.3809 -1.42109e-014 -6.24926 14.4214 4.56584e-016 9.93923e-017 3.97569e-016 -9.61425 -1.42109e-014 -1.42109e-014 0.732921 13.4772 -7.3051 0 -41.4642 0 -2.27249 28.4632 -3.9414 0 -34.276 -7.10543e-015 11.0959 9.52966 0.063943 -2.84217e-014 -6.24926 14.4214 6.36111e-015 0 -6.36111e-015 
0 0 0 0 0 -0 -65.4741 79.9676 -148.824 -7.25276 -0.031064 -44.1471 -2.84217e-014 7.88368 -2.13163e-014 1.64047 8.65946 5.24018 0 24.7763 0 2.36963 -8.82737 5.54734 0 24.6746 2.24314 0.803568 13.4859 -3.08765 0 13.4599 -1.92285 -5.61676 20.4591 -3.01948 3.81022 22.3233 -0.325006 16.3319 -12.9777 8.04255 12.5606 0 1.42109e-014 -26.2573 -19.3243 -23.6491 28.8068 0 -1.42109e-014 33.962 -52.7247 -107.607 23.8139 0 2.13163e-014 23.7314 -13.9767 -13.0912 -3.82306 22.3233 -0.325006 -13.7225 -2.25396 19.1392 -12.5606 0 0 26.8408 1.78943 15.0752 -28.8068 0 0 8.84071 -33.8739 25.6946 -23.8139 0 2.13163e-014 1.37226 -35.5622 -2.85655 9.61425 0 0 -2.12869 -14.6909 12.5544 2.84217e-014 -41.4642 1.42109e-014 -5.11256 16.6264 10.948 1.42109e-014 -34.276 1.42109e-014 9.10455 -5.39539 19.8458 -1.42109e-014 -6.24926 14.4214 2.168e-015 -1.98785e-016 3.97569e-016 -9.61425 0 -1.42109e-014 0.597331 13.1623 -7.39578 0 -41.4642 1.42109e-014 -2.4431 30.0732 -3.70056 0 -34.276 0 10.3386 9.90913 1.52262 -2.84217e-014 -6.24926 14.4214 3.18055e-015 -3.18055e-015 3.18055e-015 
0 0 0 0 0 -0 -65.8649 79.785 -148.314 -7.45338 -0.194075 -43.8798 0 7.88368 0 1.57986 8.73106 5.03232 0 24.7763 0 2.48626 -8.74615 5.34314 0 24.6746 2.24314 0.913248 13.452 -2.83276 0 13.4599 -1.92285 -5.83824 20.217 -2.76178 3.81022 22.3233 -0.325006 16.5905 -13.0906 8.1721 12.5606 -2.84217e-014 -1.42109e-014 -26.1802 -19.1592 -23.6502 28.8068 -2.84217e-014 -1.42109e-014 34.428 -53.0139 -107.105 23.8139 2.13163e-014 -1.42109e-014 24.1412 -14.1611 -12.9495 -3.82306 22.3233 -0.325006 -13.668 -2.20564 19.1831 -12.5606 0 1.42109e-014 27.2703 2.38606 15.0708 -28.8068 0 0 8.72879 -33.957 25.4543 -23.8139 2.84217e-014 -1.42109e-014 1.35432 -35.6105 -3.25164 9.61425 -1.42109e-014 0 -2.27652 -14.6195 12.2045 0 -41.4642 1.42109e-014 -5.03941 17.9004 10.3632 2.84217e-014 -34.276 0 9.90045 -6.5682 20.2967 0 -6.24926 14.4214 2.06239e-015 -1.98785e-016 -7.95139e-016 -9.61425 -2.84217e-014 -1.42109e-014 0.423489 12.8416 -7.45016 0 -41.4642 -1.42109e-014 -2.51587 31.7466 -2.94992 -2.84217e-014 -34.276 0 9.42209 9.71995 2.12883 2.84217e-014 -6.24926 14.4214 8.82781e-031 7.95139e-015 -6.36111e-015 
